HIERARCHY
ROOT Hips
{
	OFFSET -0.001795 -0.223333 0.028219
	CHANNELS 6 Xposition Yposition Zposition Zrotation Yrotation Xrotation 
	JOINT LeftUpLeg
	{
		OFFSET 0.069520 -0.091406 -0.006815
		CHANNELS 3 Zrotation Yrotation Xrotation
		JOINT LeftLeg
		{
			OFFSET 0.034277 -0.375199 -0.004496
			CHANNELS 3 Zrotation Yrotation Xrotation
			JOINT LeftFoot
			{
				OFFSET -0.013596 -0.397961 -0.043693
				CHANNELS 3 Zrotation Yrotation Xrotation
				JOINT LeftToe
				{
					OFFSET 0.026358 -0.055791 0.119288
					CHANNELS 3 Zrotation Yrotation Xrotation
					End Site
					{
						OFFSET 0.000000 0.000000 0.000000
					}
				}
			}
		}
	}
	JOINT RightUpLeg
	{
		OFFSET -0.067670 -0.090522 -0.004320
		CHANNELS 3 Zrotation Yrotation Xrotation
		JOINT RightLeg
		{
			OFFSET -0.038290 -0.382569 -0.008850
			CHANNELS 3 Zrotation Yrotation Xrotation
			JOINT RightFoot
			{
				OFFSET 0.015774 -0.398415 -0.042312
				CHANNELS 3 Zrotation Yrotation Xrotation
				JOINT RightToe
				{
					OFFSET -0.025372 -0.048144 0.123348
					CHANNELS 3 Zrotation Yrotation Xrotation
					End Site
					{
						OFFSET 0.000000 0.000000 0.000000
					}
				}
			}
		}
	}
	JOINT Spine
	{
		OFFSET -0.002533 0.108963 -0.026696
		CHANNELS 3 Zrotation Yrotation Xrotation
		JOINT Spine1
		{
			OFFSET 0.005487 0.135180 0.001092
			CHANNELS 3 Zrotation Yrotation Xrotation
			JOINT Spine2
			{
				OFFSET 0.001457 0.052922 0.025425
				CHANNELS 3 Zrotation Yrotation Xrotation
				JOINT Neck
				{
					OFFSET -0.002778 0.213870 -0.042857
					CHANNELS 3 Zrotation Yrotation Xrotation
					JOINT Head
					{
						OFFSET 0.005152 0.064970 0.051349
						CHANNELS 3 Zrotation Yrotation Xrotation
						End Site
						{
							OFFSET 0.000000 0.000000 0.000000
						}
					}
				}
				JOINT LeftShoulder
				{
					OFFSET 0.078845 0.121749 -0.034090
					CHANNELS 3 Zrotation Yrotation Xrotation
					JOINT LeftArm
					{
						OFFSET 0.090977 0.030469 -0.008868
						CHANNELS 3 Zrotation Yrotation Xrotation
						JOINT LeftForeArm
						{
							OFFSET 0.259612 -0.012772 -0.027456
							CHANNELS 3 Zrotation Yrotation Xrotation
							JOINT LeftHand
							{
								OFFSET 0.249234 0.008986 -0.001171
								CHANNELS 3 Zrotation Yrotation Xrotation
								End Site
								{
									OFFSET 0.000000 0.000000 0.000000
								}
							}
						}
					}
				}
				JOINT RightShoulder
				{
					OFFSET -0.081759 0.118833 -0.038615
					CHANNELS 3 Zrotation Yrotation Xrotation
					JOINT RightArm
					{
						OFFSET -0.096012 0.032551 -0.009143
						CHANNELS 3 Zrotation Yrotation Xrotation
						JOINT RightForeArm
						{
							OFFSET -0.253742 -0.013329 -0.021401
							CHANNELS 3 Zrotation Yrotation Xrotation
							JOINT RightHand
							{
								OFFSET -0.255298 0.007772 -0.005559
								CHANNELS 3 Zrotation Yrotation Xrotation
								End Site
								{
									OFFSET 0.000000 0.000000 0.000000
								}
							}
						}
					}
				}
			}
		}
	}
}
MOTION
Frames: 18
Frame Time: 0.050000
0.000000 0.938215 0.000000 0.208683 -1.583734 5.241189 5.092912 -0.235337 -2.661999 -4.844474 0.534954 -0.679606 5.678197 13.296951 9.521202 0.000000 0.000000 0.000000 -4.227222 0.465878 -4.769357 -3.127549 0.184736 -1.966369 -0.330126 -2.711192 3.849665 0.000000 0.000000 0.000000 5.827633 0.203253 -3.781722 -2.601934 1.223034 -1.396009 -4.585301 3.592411 4.045166 4.542357 -2.412444 -7.608377 0.000000 0.000000 0.000000 -18.138381 -2.870546 -1.135275 -56.005713 -4.674413 -4.335223 -4.790006 -18.683798 1.365585 0.000000 0.000000 0.000000 15.063173 -5.285687 -3.376270 64.267507 5.576935 -2.924868 0.966745 23.527853 1.169553 0.000000 0.000000 0.000000 
0.000029 0.937745 0.000358 0.190331 -2.011648 5.785477 5.043293 -0.199416 -1.840692 -4.832649 0.517485 -3.038446 5.774763 13.479885 9.950335 0.000000 0.000000 0.000000 -4.379699 0.523614 -5.545649 -2.897209 0.176257 -1.749724 -0.225237 -2.424459 3.702901 0.000000 0.000000 0.000000 7.299615 0.272098 -4.397101 -3.343278 1.554561 -1.716298 -5.909829 4.053171 4.388095 3.743254 -1.616540 -9.012317 0.000000 0.000000 0.000000 -18.672722 -2.229909 -1.638188 -54.398672 -4.929949 -4.075428 -5.459755 -18.601654 1.454014 0.000000 0.000000 0.000000 14.867203 -6.492947 -3.878217 65.936288 5.277814 -3.112692 0.303065 23.064815 1.054526 0.000000 0.000000 0.000000 
0.000028 0.937694 0.000431 0.717787 -1.659300 5.793523 4.641869 -0.227739 -2.378896 -5.061990 0.541722 -2.228802 5.601862 13.210536 9.880374 0.000000 0.000000 0.000000 -4.991807 0.546280 -6.080283 -2.799516 0.239180 -0.670068 -0.500520 -2.839490 3.243036 0.000000 0.000000 0.000000 6.985168 0.276198 -4.502891 -3.408728 1.573850 -2.478254 -6.157193 3.518824 4.990526 2.943197 -1.141342 -8.633867 0.000000 0.000000 0.000000 -18.779801 -2.360531 -1.477076 -54.149123 -5.300211 -3.960352 -4.719631 -17.529856 1.276493 0.000000 0.000000 0.000000 16.046320 -5.953914 -3.784133 64.196340 5.079827 -3.320794 1.404936 22.840802 1.229368 0.000000 0.000000 0.000000 
-0.000099 0.937393 0.000522 1.039113 -1.396871 6.091653 4.717990 -0.244181 -2.587867 -5.742789 0.596018 -2.519080 5.417397 12.935693 9.985032 0.000000 0.000000 0.000000 -5.294204 0.582174 -6.791796 -2.855117 0.298352 0.140249 -0.719448 -3.189556 2.896940 0.000000 0.000000 0.000000 7.257333 0.300799 -4.784300 -3.955633 1.824560 -2.147316 -6.360091 3.060370 4.428649 1.934948 -0.553809 -7.765565 0.000000 0.000000 0.000000 -18.614061 -2.128783 -1.537967 -54.415853 -5.653939 -3.768909 -3.717845 -17.391780 1.118153 0.000000 0.000000 0.000000 14.955834 -6.329229 -3.906938 64.974447 4.300163 -3.683467 2.200294 23.903965 1.429731 0.000000 0.000000 0.000000 
-0.000319 0.937450 0.000509 1.448648 -0.983523 6.127029 4.178061 -0.260506 -2.829496 -5.466322 0.569098 -2.280184 5.207152 12.622870 9.998332 0.000000 0.000000 0.000000 -5.585926 0.584582 -7.038314 -3.061386 0.357838 0.682751 -0.950052 -3.625421 2.680622 0.000000 0.000000 0.000000 6.902337 0.278034 -4.660036 -3.686082 1.701950 -2.322903 -6.831853 2.854831 4.535108 1.435601 -0.128633 -8.378911 0.000000 0.000000 0.000000 -18.716473 -2.135049 -1.571323 -53.759147 -6.088165 -3.524864 -4.125762 -17.104215 1.157915 0.000000 0.000000 0.000000 14.876467 -6.611796 -4.020030 64.825545 3.886420 -3.906345 2.764577 24.157174 1.564341 0.000000 0.000000 0.000000 
-0.000606 0.937578 0.000513 1.697256 -0.670628 6.429008 4.151589 -0.280396 -3.093973 -5.794549 0.590102 -2.487190 5.005319 12.339309 10.181616 0.000000 0.000000 0.000000 -5.694925 0.594258 -7.282919 -3.291502 0.382590 0.660940 -1.091203 -3.963812 2.718227 0.000000 0.000000 0.000000 6.978978 0.295356 -4.910782 -3.932795 1.809175 -2.484609 -7.034137 2.619448 4.603585 0.854116 0.277821 -8.424722 0.000000 0.000000 0.000000 -18.791733 -2.047324 -1.619035 -53.215317 -6.381165 -3.352099 -4.047444 -16.866708 1.131295 0.000000 0.000000 0.000000 14.366783 -6.750823 -4.033878 65.308258 3.348459 -4.209242 2.976548 24.270601 1.612543 0.000000 0.000000 0.000000 
-0.000919 0.937768 0.000469 1.891711 -0.463274 6.459661 3.986688 -0.294576 -3.311939 -5.794753 0.591588 -2.221849 4.893817 12.180909 10.234439 0.000000 0.000000 0.000000 -5.764845 0.594528 -7.374415 -3.484351 0.417902 0.851656 -1.191831 -4.178508 2.679766 0.000000 0.000000 0.000000 6.960332 0.284355 -4.833717 -4.012634 1.847225 -2.365444 -7.189717 2.333075 4.568701 0.706258 0.427145 -9.009204 0.000000 0.000000 0.000000 -18.755002 -1.911408 -1.649599 -52.977005 -6.225306 -3.407042 -4.266404 -17.187382 1.189076 0.000000 0.000000 0.000000 14.148728 -6.874568 -4.093611 65.535822 2.573366 -4.654878 3.550518 25.088622 1.784481 0.000000 0.000000 0.000000 
-0.001269 0.937997 0.000414 1.985312 -0.159702 6.617655 3.867531 -0.317292 -3.642785 -5.655773 0.577818 -2.020472 4.753132 11.980710 10.269704 0.000000 0.000000 0.000000 -5.821576 0.602268 -7.609012 -3.483592 0.435758 1.085427 -1.323615 -4.482860 2.687282 0.000000 0.000000 0.000000 7.088683 0.292115 -4.955830 -4.049837 1.860921 -2.576959 -7.554050 2.306547 4.775613 0.327380 0.685668 -8.850148 0.000000 0.000000 0.000000 -18.476314 -2.049068 -1.581722 -52.682971 -6.000379 -3.496735 -4.536134 -17.891931 1.274559 0.000000 0.000000 0.000000 14.069803 -7.141161 -4.183573 65.781942 1.838298 -5.078611 3.863371 25.714690 1.917431 0.000000 0.000000 0.000000 
-0.001617 0.938247 0.000339 2.138088 0.009909 6.730603 3.644282 -0.340193 -3.980630 -5.476555 0.563618 -1.694337 4.678212 11.881386 10.323139 0.000000 0.000000 0.000000 -5.934845 0.607975 -7.817356 -3.517789 0.455808 1.306402 -1.406961 -4.669031 2.675504 0.000000 0.000000 0.000000 7.187223 0.297382 -5.034132 -4.124237 1.889473 -2.849670 -7.678604 2.321277 5.094946 0.096565 0.878704 -9.125565 0.000000 0.000000 0.000000 -18.236527 -1.964481 -1.609006 -52.664808 -5.853271 -3.590932 -4.950073 -18.256105 1.364191 0.000000 0.000000 0.000000 13.902410 -7.231009 -4.185101 65.797227 1.220589 -5.444734 4.212768 26.140219 2.041804 0.000000 0.000000 0.000000 
-0.001967 0.938543 0.000308 2.341188 0.282251 6.805900 3.435583 -0.356831 -4.197894 -5.399237 0.555230 -1.523508 4.525193 11.672628 10.425726 0.000000 0.000000 0.000000 -6.047123 0.605370 -7.912278 -3.636094 0.480967 1.449328 -1.523961 -4.942873 2.693720 0.000000 0.000000 0.000000 7.321713 0.298657 -5.069697 -4.327550 1.975233 -3.099995 -7.808937 2.408604 5.480761 -0.203647 1.128470 -9.409202 0.000000 0.000000 0.000000 -18.061267 -2.241078 -1.487024 -52.623109 -5.771899 -3.652082 -5.017668 -18.887484 1.417022 0.000000 0.000000 0.000000 13.844591 -7.443260 -4.240338 65.926409 0.835281 -5.685746 4.319694 26.664151 2.137837 0.000000 0.000000 0.000000 
-0.002282 0.938464 0.000292 2.414089 0.435022 6.841580 3.394756 -0.359482 -4.219529 -5.399116 0.552294 -1.586015 4.444052 11.552545 10.425648 0.000000 0.000000 0.000000 -6.083921 0.606139 -7.998984 -3.655243 0.495165 1.604772 -1.602434 -5.096229 2.618605 0.000000 0.000000 0.000000 7.490078 0.308105 -5.160488 -4.319046 1.973715 -3.012367 -8.005876 2.438866 5.477447 -0.348173 1.242528 -9.468175 0.000000 0.000000 0.000000 -18.009055 -2.337775 -1.465531 -52.708250 -5.667568 -3.699656 -5.189546 -19.333087 1.473938 0.000000 0.000000 0.000000 13.672106 -7.461828 -4.206518 66.005677 0.525995 -5.845417 4.700699 27.081752 2.271297 0.000000 0.000000 0.000000 
-0.002580 0.938358 0.000299 2.463877 0.767339 6.953012 3.536483 -0.373072 -4.417798 -5.636466 0.570168 -1.518446 4.283554 11.309045 10.386461 0.000000 0.000000 0.000000 -6.126440 0.605566 -8.098239 -3.594314 0.497043 1.714321 -1.747071 -5.409275 2.568751 0.000000 0.000000 0.000000 7.535615 0.315904 -5.284606 -4.273864 1.955400 -2.978548 -8.038931 2.434346 5.501537 -0.219766 1.181892 -9.626677 0.000000 0.000000 0.000000 -18.067333 -2.529134 -1.418262 -52.940224 -5.569209 -3.753123 -4.983675 -19.693679 1.459745 0.000000 0.000000 0.000000 13.582772 -7.523808 -4.199734 66.147112 0.357643 -5.929422 4.704948 27.635586 2.341286 0.000000 0.000000 0.000000 
-0.002899 0.938242 0.000271 2.456324 0.963305 6.988401 3.570105 -0.383008 -4.567770 -5.601679 0.566785 -1.363429 4.210921 11.192417 10.304847 0.000000 0.000000 0.000000 -6.041504 0.612800 -8.259518 -3.662415 0.527828 2.017506 -1.846424 -5.606771 2.473802 0.000000 0.000000 0.000000 7.584018 0.323021 -5.366441 -4.131489 1.893198 -3.045256 -8.131386 2.595496 5.585722 0.027083 1.044126 -9.707952 0.000000 0.000000 0.000000 -18.062848 -2.710365 -1.392591 -53.142003 -5.565587 -3.765418 -4.924656 -19.766156 1.444483 0.000000 0.000000 0.000000 13.613388 -7.496458 -4.145028 66.278112 0.480549 -5.850351 4.467916 27.809005 2.327240 0.000000 0.000000 0.000000 
-0.003261 0.938133 0.000195 2.413029 1.089995 6.951010 3.621217 -0.392641 -4.732379 -5.538383 0.564081 -1.032921 4.186347 11.139961 10.183296 0.000000 0.000000 0.000000 -5.949789 0.618372 -8.365673 -3.674405 0.551882 2.325646 -1.914677 -5.729459 2.368053 0.000000 0.000000 0.000000 7.545237 0.329360 -5.431670 -3.997789 1.836566 -2.995195 -8.077951 2.690170 5.625113 0.444452 0.767575 -9.656509 0.000000 0.000000 0.000000 -17.923159 -2.978427 -1.272345 -53.531688 -5.538815 -3.812365 -4.606925 -19.694040 1.380470 0.000000 0.000000 0.000000 13.600082 -7.332854 -4.038201 66.448121 0.660787 -5.749874 4.104505 28.078294 2.282048 0.000000 0.000000 0.000000 
-0.003670 0.938006 0.000065 2.375842 1.201261 6.902909 3.687514 -0.402670 -4.909085 -5.511146 0.565160 -0.663788 4.170058 11.097591 10.057810 0.000000 0.000000 0.000000 -5.875617 0.616529 -8.318723 -3.666376 0.554240 2.365159 -1.961609 -5.820594 2.316099 0.000000 0.000000 0.000000 7.516289 0.332370 -5.466297 -3.898742 1.794489 -2.964379 -8.036178 2.761393 5.598289 0.549115 0.688119 -9.492696 0.000000 0.000000 0.000000 -17.877808 -3.216982 -1.174281 -53.728766 -5.571166 -3.810350 -4.530617 -19.336064 1.339636 0.000000 0.000000 0.000000 13.552258 -7.038971 -3.868624 66.673706 1.088881 -5.509469 3.607297 28.075812 2.173813 0.000000 0.000000 0.000000 
-0.004122 0.937826 -0.000119 2.316227 1.310797 6.789296 3.802157 -0.406273 -5.000997 -5.522667 0.569913 -0.323339 4.152387 11.049671 9.916340 0.000000 0.000000 0.000000 -5.768791 0.615041 -8.269106 -3.664899 0.565594 2.520804 -2.013766 -5.907599 2.214723 0.000000 0.000000 0.000000 7.258837 0.311027 -5.277178 -3.652218 1.689301 -2.794023 -7.910061 2.767008 5.417992 1.399524 0.075859 -9.185664 0.000000 0.000000 0.000000 -17.868690 -3.423442 -1.088720 -54.000425 -5.619887 -3.791507 -4.379924 -19.313303 1.309289 0.000000 0.000000 0.000000 13.378072 -6.712358 -3.682943 66.823483 1.461552 -5.275928 3.595017 28.263916 2.187791 0.000000 0.000000 0.000000 
-0.004652 0.937835 -0.000360 2.175542 1.461346 6.631353 4.044246 -0.403694 -5.018840 -5.585375 0.578712 -0.048914 4.102992 10.961463 9.822509 0.000000 0.000000 0.000000 -5.592290 0.604369 -8.001514 -3.611110 0.548896 2.368181 -2.046186 -5.993130 2.252199 0.000000 0.000000 0.000000 7.161502 0.289797 -5.055707 -3.504295 1.626938 -2.622899 -7.750760 2.684877 5.340856 1.942088 -0.314119 -9.066871 0.000000 0.000000 0.000000 -17.928646 -3.595458 -1.005870 -54.109608 -5.610490 -3.795919 -4.556237 -19.511441 1.352393 0.000000 0.000000 0.000000 13.527944 -6.364796 -3.529996 66.702897 1.913436 -5.017294 3.625589 28.330766 2.198130 0.000000 0.000000 0.000000 
-0.005183 0.937633 -0.000667 2.008981 1.488484 6.628320 4.301645 -0.411850 -5.226644 -5.647120 0.589663 0.277398 4.137782 10.994360 9.688202 0.000000 0.000000 0.000000 -5.408869 0.612554 -8.036270 -3.543933 0.542499 2.396271 -2.057087 -6.005146 2.210771 0.000000 0.000000 0.000000 6.975058 0.264185 -4.822246 -3.176756 1.482930 -2.474343 -7.677240 2.734948 5.075233 3.065647 -1.119055 -8.817220 0.000000 0.000000 0.000000 -17.656237 -3.649914 -0.968550 -54.417070 -5.282556 -3.950769 -5.018163 -20.015814 1.460217 0.000000 0.000000 0.000000 13.314964 -6.296128 -3.469380 67.001085 2.156632 -4.845819 3.773559 28.689015 2.266773 0.000000 0.000000 0.000000 
